<svg width="18" height="18" fill="none" xmlns="http://www.w3.org/2000/svg"><path fill-rule="evenodd" clip-rule="evenodd" d="M8.657 9.699h.127c1.165-.019 2.107-.403 2.802-1.137 1.53-1.618 1.277-4.39 1.249-4.656-.1-1.986-1.101-2.937-1.928-3.38C10.29.194 9.57.015 8.768 0h-.067c-.442 0-1.308.067-2.14.51-.834.444-1.852 1.395-1.95 3.396-.029.265-.283 3.038 1.247 4.656.692.734 1.634 1.118 2.799 1.137ZM5.674 3.982l.002-.012c.13-2.673 2.154-2.96 3.02-2.96h.048c1.074.022 2.898.432 3.021 2.96 0 .01 0 .022.005.03.003.026.282 2.56-.982 3.895-.501.53-1.17.79-2.048.797H8.7c-.874-.007-1.546-.268-2.043-.797-1.26-1.327-.99-3.873-.985-3.895 0-.007 0-.013.002-.018ZM16.89 14.287v.012c.003.193.008 1.189-.191 1.684a.507.507 0 0 1-.207.235l-.002.001C16.348 16.304 13.494 18 8.733 18c-4.783 0-7.64-1.707-7.76-1.782a.487.487 0 0 1-.207-.235c-.21-.5-.206-1.494-.202-1.688v-.011c.004-.03.004-.06.004-.094v-.005c.024-.738.08-2.456 1.8-3.01a.483.483 0 0 1 .04-.011c1.8-.429 3.284-1.398 3.3-1.41a.559.559 0 0 1 .747.124.483.483 0 0 1-.15.712c-.192.121-1.72 1.087-3.61 1.543-.927.31-1.03 1.237-1.058 2.087a.753.753 0 0 1-.002.05.673.673 0 0 0-.002.043c-.008.336.02.854.083 1.152.648.343 3.188 1.532 7.013 1.532 3.84 0 6.364-1.185 7.008-1.528.063-.298.087-.816.083-1.152-.004-.03-.004-.06-.004-.093-.028-.85-.13-1.778-1.057-2.087-1.98-.478-3.562-1.51-3.63-1.555a.483.483 0 0 1-.13-.7.559.559 0 0 1 .747-.123c.016.01 1.506.98 3.3 1.409l.019.005.02.006c1.72.55 1.776 2.269 1.8 3.01v.005c0 .017.002.034.003.05l.002.043Z" fill="#000"/></svg>