<svg width="150" height="28" fill="none" xmlns="http://www.w3.org/2000/svg"><path fill-rule="evenodd" clip-rule="evenodd" d="M28.016 7.516A7.527 7.527 0 0 1 24.34 14a7.527 7.527 0 0 1 3.676 6.484c0 4.15-3.329 7.516-7.435 7.516-2.85 0-5.325-1.623-6.573-4.003C12.76 26.377 10.286 28 7.435 28 3.329 28 0 24.635 0 20.484A7.527 7.527 0 0 1 3.676 14 7.527 7.527 0 0 1 0 7.516C0 3.366 3.329 0 7.435 0c2.85 0 5.325 1.623 6.573 4.003C15.256 1.623 17.73 0 20.581 0c4.106 0 7.435 3.365 7.435 7.516Zm26.911 13.918c-1.07.861-2.593 1.3-4.572 1.316H43.58V5.332h6.105c2.114 0 3.718.405 4.811 1.214 1.093.81 1.64 1.996 1.64 3.56 0 .853-.22 1.604-.658 2.254-.44.65-1.05 1.127-1.832 1.43.894.223 1.598.674 2.113 1.352.515.678.772 1.507.772 2.488 0 1.675-.535 2.943-1.604 3.804Zm-7.756-8.805h2.657c1.811-.031 2.717-.753 2.717-2.165 0-.79-.23-1.358-.688-1.705-.459-.347-1.183-.52-2.172-.52H47.17v4.39Zm3.076 7.238h-3.076v-4.702h3.291c1.652.025 2.478.834 2.478 2.429 0 .71-.237 1.266-.712 1.669s-1.135.604-1.981.604Zm18.688 2.883v2.704H58.03V22.75h10.905Zm6.634.24c1.604 0 2.913-.366 3.926-1.095 1.014-.73 1.52-1.685 1.52-2.866 0-1.65-.913-2.81-2.74-3.48-.591-.216-1.317-.41-2.18-.58-.861-.172-1.474-.376-1.837-.611s-.544-.544-.544-.927c0-.407.16-.742.479-1.005.319-.263.77-.395 1.352-.395.678 0 1.177.162 1.496.485.32.323.48.732.48 1.226h3.458c0-1.236-.492-2.241-1.478-3.015-.985-.773-2.3-1.16-3.944-1.16-1.54 0-2.787.385-3.74 1.154-.954.77-1.43 1.729-1.43 2.877 0 1.97 1.54 3.278 4.62 3.924.925.192 1.597.409 2.016.652.42.243.629.576.629 1 0 .406-.17.735-.509.986-.34.251-.84.377-1.502.377-.71 0-1.277-.164-1.7-.49-.423-.328-.65-.798-.682-1.412h-3.28c0 .781.24 1.51.718 2.183.48.674 1.14 1.204 1.981 1.591.842.387 1.806.58 2.891.58Zm13.469 2.452c-.774 1.69-2.05 2.536-3.83 2.536a5.447 5.447 0 0 1-1.532-.228v-2.62l.526.013c.655 0 1.143-.1 1.467-.3.323-.199.576-.53.76-.992l.407-1.065-4.537-12.98h3.723l2.406 8.051 2.394-8.05h3.71L89.325 24.76l-.287.682Zm12.14-2.453c1.604 0 2.913-.365 3.926-1.094 1.014-.73 1.521-1.685 1.521-2.866 0-1.65-.914-2.81-2.741-3.48-.591-.216-1.317-.41-2.179-.58-.862-.172-1.474-.376-1.837-.611s-.545-.544-.545-.927c0-.407.16-.742.479-1.005.319-.263.77-.395 1.352-.395.679 0 1.177.162 1.497.485.319.323.478.732.478 1.226h3.46c0-1.236-.493-2.241-1.479-3.015-.985-.773-2.3-1.16-3.944-1.16-1.54 0-2.787.385-3.74 1.154-.954.77-1.43 1.729-1.43 2.877 0 1.97 1.54 3.278 4.62 3.924.925.192 1.598.409 2.017.652.419.243.628.576.628 1 0 .406-.169.735-.509.986-.339.251-.839.377-1.502.377-.71 0-1.277-.164-1.7-.49-.422-.328-.65-.798-.682-1.412h-3.28c0 .781.24 1.51.719 2.183.478.674 1.139 1.204 1.98 1.591.843.387 1.806.58 2.891.58Zm14.511-.31a7.13 7.13 0 0 1-2.095.31c-2.426 0-3.663-1.224-3.711-3.672v-6.975h-1.891V9.806h1.891V6.624h3.46v3.182h2.214v2.536h-2.214v6.46c0 .479.091.822.275 1.03.184.206.535.31 1.053.31.383 0 .722-.028 1.018-.084v2.62Zm8.106.31c1.078 0 2.059-.205 2.945-.616.886-.41 1.588-.983 2.106-1.716l-1.699-1.903c-.75.965-1.792 1.448-3.124 1.448-.862 0-1.574-.255-2.137-.766-.562-.51-.9-1.188-1.011-2.033h8.247V15.99c0-2.05-.509-3.633-1.526-4.75-1.018-1.116-2.412-1.674-4.184-1.674-1.181 0-2.232.277-3.154.831-.921.555-1.634 1.344-2.136 2.369-.503 1.025-.754 2.187-.754 3.487v.335c0 1.938.596 3.49 1.789 4.654 1.193 1.164 2.739 1.746 4.638 1.746Zm-2.884-7.943h4.811v-.275c-.016-.766-.223-1.358-.622-1.777-.399-.418-.966-.628-1.7-.628-.686 0-1.243.232-1.669.694-.427.463-.701 1.125-.82 1.986Zm13.983-1.448c.439-.813 1.149-1.22 2.131-1.22.71 0 1.213.168 1.508.503.295.335.443.877.443 1.627v8.242h3.459l-.012-8.888c.399-.99 1.117-1.484 2.155-1.484.726 0 1.233.17 1.52.509.287.338.431.875.431 1.609v8.254H150v-8.266c0-1.643-.343-2.873-1.029-3.69-.687-.818-1.732-1.227-3.136-1.227-1.684 0-2.981.658-3.891 1.974-.622-1.316-1.767-1.974-3.435-1.974-1.564 0-2.805.562-3.722 1.687l-.108-1.448h-3.244V22.75h3.459v-9.152Z" fill="#000"/></svg>