<svg width="18" height="18" fill="none" xmlns="http://www.w3.org/2000/svg"><path fill-rule="evenodd" clip-rule="evenodd" d="m15.746 14.663.004-10.518a.46.46 0 0 0-.462-.41h-2.956C12.304 1.98 10.822.563 9 .563c-1.821 0-3.304 1.417-3.332 3.172H2.712a.457.457 0 0 0-.462.41l.003 10.518c0 .014-.003.027-.003.04 0 1.198 1.135 2.172 2.532 2.172h8.436c1.397 0 2.532-.974 2.532-2.172 0-.013 0-.026-.004-.04ZM9 1.463c1.307 0 2.373 1.014 2.4 2.272H6.6C6.626 2.477 7.692 1.463 9 1.463Zm4.218 14.511H4.782c-.877 0-1.587-.56-1.6-1.25V4.638h2.483v1.368c0 .25.207.45.465.45.259 0 .466-.2.466-.45V4.639H11.4v1.368c0 .25.207.45.466.45s.466-.2.466-.45V4.639h2.45v10.085c-.013.69-.691 1.25-1.564 1.25Z" fill="#000"/></svg>